<svg xmlns="http://www.w3.org/2000/svg" width="129.945" height="22.155" viewBox="0 0 129.945 22.155"><defs><style>.a{fill:#ffd001;isolation:isolate;}</style></defs><g transform="translate(0)"><path class="a" d="M-193.553,62.861l3.108,6.3a.622.622,0,0,0,.468.34l6.948,1.01a.622.622,0,0,1,.345,1.061l-5.028,4.9a.621.621,0,0,0-.179.551l1.187,6.92a.622.622,0,0,1-.9.656l-6.215-3.267a.623.623,0,0,0-.579,0l-6.215,3.267a.622.622,0,0,1-.9-.656l1.187-6.92a.621.621,0,0,0-.179-.551l-5.028-4.9a.622.622,0,0,1,.345-1.061l6.948-1.01a.622.622,0,0,0,.469-.34l3.108-6.3A.622.622,0,0,1-193.553,62.861Z" transform="translate(205.726 -62.514)"/><path class="a" d="M-193.553,62.861l3.108,6.3a.622.622,0,0,0,.468.34l6.948,1.01a.622.622,0,0,1,.345,1.061l-5.028,4.9a.621.621,0,0,0-.179.551l1.187,6.92a.622.622,0,0,1-.9.656l-6.215-3.267a.623.623,0,0,0-.579,0l-6.215,3.267a.622.622,0,0,1-.9-.656l1.187-6.92a.621.621,0,0,0-.179-.551l-5.028-4.9a.622.622,0,0,1,.345-1.061l6.948-1.01a.622.622,0,0,0,.469-.34l3.108-6.3A.622.622,0,0,1-193.553,62.861Z" transform="translate(232.405 -62.514)"/><path class="a" d="M-193.553,62.861l3.108,6.3a.622.622,0,0,0,.468.34l6.948,1.01a.622.622,0,0,1,.345,1.061l-5.028,4.9a.621.621,0,0,0-.179.551l1.187,6.92a.622.622,0,0,1-.9.656l-6.215-3.267a.623.623,0,0,0-.579,0l-6.215,3.267a.622.622,0,0,1-.9-.656l1.187-6.92a.621.621,0,0,0-.179-.551l-5.028-4.9a.622.622,0,0,1,.345-1.061l6.948-1.01a.622.622,0,0,0,.469-.34l3.108-6.3A.622.622,0,0,1-193.553,62.861Z" transform="translate(259.083 -62.514)"/><path class="a" d="M-193.553,62.861l3.108,6.3a.622.622,0,0,0,.468.34l6.948,1.01a.622.622,0,0,1,.345,1.061l-5.028,4.9a.621.621,0,0,0-.179.551l1.187,6.92a.622.622,0,0,1-.9.656l-6.215-3.267a.623.623,0,0,0-.579,0l-6.215,3.267a.622.622,0,0,1-.9-.656l1.187-6.92a.621.621,0,0,0-.179-.551l-5.028-4.9a.622.622,0,0,1,.345-1.061l6.948-1.01a.622.622,0,0,0,.469-.34l3.108-6.3A.622.622,0,0,1-193.553,62.861Z" transform="translate(285.762 -62.514)"/><path class="a" d="M-193.553,62.861l3.108,6.3a.622.622,0,0,0,.468.34l6.948,1.01a.622.622,0,0,1,.345,1.061l-5.028,4.9a.621.621,0,0,0-.179.551l1.187,6.92a.622.622,0,0,1-.9.656l-6.215-3.267a.623.623,0,0,0-.579,0l-6.215,3.267a.622.622,0,0,1-.9-.656l1.187-6.92a.621.621,0,0,0-.179-.551l-5.028-4.9a.622.622,0,0,1,.345-1.061l6.948-1.01a.622.622,0,0,0,.469-.34l3.108-6.3A.622.622,0,0,1-193.553,62.861Z" transform="translate(312.441 -62.514)"/></g></svg>