<svg xmlns="http://www.w3.org/2000/svg" width="100" height="100" viewBox="0 0 100 100"><defs><style>.cls-1{fill:#0e3260;}.cls-2{fill:#fff;}</style></defs><title>5-star</title><g id="Layer_2" data-name="Layer 2"><g id="Layer_1-2" data-name="Layer 1"><g id="Group_51" data-name="Group 51"><circle id="Ellipse_6" data-name="Ellipse 6" class="cls-1" cx="50" cy="50" r="50"/><g id="Group_20" data-name="Group 20"><path id="Path_4" data-name="Path 4" class="cls-2" d="M24.173,51.684l3.108,6.3a.6218.6218,0,0,0,.468.34l6.948,1.01a.622.622,0,0,1,.345,1.061l-5.028,4.9a.6212.6212,0,0,0-.179.551l1.187,6.92a.622.622,0,0,1-.9.656l-6.215-3.267a.6232.6232,0,0,0-.579,0l-6.215,3.267a.622.622,0,0,1-.9-.656l1.187-6.92a.6209.6209,0,0,0-.179-.551l-5.028-4.9a.622.622,0,0,1,.345-1.061l6.948-1.01a.6217.6217,0,0,0,.469-.34l3.108-6.3a.6221.6221,0,0,1,1.11,0Z"/><path id="Path_4-2" data-name="Path 4-2" class="cls-2" d="M50.852,51.684l3.108,6.3a.6218.6218,0,0,0,.468.34l6.948,1.01a.622.622,0,0,1,.345,1.061l-5.028,4.9a.6212.6212,0,0,0-.179.551l1.187,6.92a.622.622,0,0,1-.9.656l-6.215-3.267a.6232.6232,0,0,0-.579,0l-6.215,3.267a.622.622,0,0,1-.9-.656l1.187-6.92a.6209.6209,0,0,0-.179-.551l-5.028-4.9a.622.622,0,0,1,.345-1.061l6.948-1.01a.6217.6217,0,0,0,.469-.34l3.108-6.3a.622.622,0,0,1,1.11,0Z"/><path id="Path_4-3" data-name="Path 4-3" class="cls-2" d="M77.53,51.684l3.108,6.3a.6218.6218,0,0,0,.468.34l6.948,1.01a.622.622,0,0,1,.345,1.061l-5.028,4.9a.6212.6212,0,0,0-.179.551l1.187,6.92a.622.622,0,0,1-.9.656l-6.215-3.267a.6232.6232,0,0,0-.579,0L70.47,73.422a.622.622,0,0,1-.9-.656l1.187-6.92a.6209.6209,0,0,0-.179-.551l-5.028-4.9a.6221.6221,0,0,1,.345-1.061l6.948-1.01a.6217.6217,0,0,0,.469-.34l3.108-6.3a.622.622,0,0,1,1.11,0Z"/><path id="Path_4-4" data-name="Path 4-4" class="cls-2" d="M37.209,26.684l3.108,6.3a.6218.6218,0,0,0,.468.34l6.948,1.01a.622.622,0,0,1,.345,1.061l-5.028,4.9a.6212.6212,0,0,0-.179.551l1.187,6.92a.622.622,0,0,1-.9.656l-6.215-3.267a.6232.6232,0,0,0-.579,0l-6.215,3.267a.622.622,0,0,1-.9-.656l1.187-6.92a.6209.6209,0,0,0-.179-.551l-5.028-4.9a.622.622,0,0,1,.345-1.061l6.948-1.01a.6217.6217,0,0,0,.469-.34l3.108-6.3a.6221.6221,0,0,1,1.11,0Z"/><path id="Path_4-5" data-name="Path 4-5" class="cls-2" d="M63.888,26.684l3.108,6.3a.6218.6218,0,0,0,.468.34l6.948,1.01a.622.622,0,0,1,.345,1.061l-5.028,4.9a.6212.6212,0,0,0-.179.551l1.187,6.92a.622.622,0,0,1-.9.656l-6.215-3.267a.6232.6232,0,0,0-.579,0l-6.215,3.267a.622.622,0,0,1-.9-.656l1.187-6.92a.6209.6209,0,0,0-.179-.551l-5.028-4.9a.622.622,0,0,1,.345-1.061l6.948-1.01a.6217.6217,0,0,0,.469-.34l3.108-6.3a.6221.6221,0,0,1,1.11,0Z"/></g></g></g></g></svg>