<svg xmlns="http://www.w3.org/2000/svg" width="114" height="114" viewBox="0 0 114 114"><defs><style>.cls-1{fill:#0e3260;}.cls-2{fill:#fff;}</style></defs><title>agreed-value</title><g id="Layer_2" data-name="Layer 2"><g id="Layer_1-2" data-name="Layer 1"><circle id="Ellipse_40" data-name="Ellipse 40" class="cls-1" cx="57" cy="57" r="57"/><path class="cls-2" d="M86,32H28a2,2,0,0,0-2,2V79a2,2,0,0,0,2,2h8.519v9.731L45.8454,81H86a2,2,0,0,0,2-2V34A2,2,0,0,0,86,32ZM74.434,49.516,53.867,70.0879a1.3229,1.3229,0,0,1-1.871,0L40.265,58.278a1.3231,1.3231,0,0,1,0-1.871l2.801-2.8049a1.3227,1.3227,0,0,1,1.871,0l8,8.0578,16.82-16.82a1.3229,1.3229,0,0,1,1.871,0l2.806,2.81A1.3232,1.3232,0,0,1,74.434,49.516Z"/></g></g></svg>