<svg xmlns="http://www.w3.org/2000/svg" width="100" height="100" viewBox="0 0 100 100"><defs><style>.cls-1{fill:#0e3260;}.cls-2{fill:#fff;}</style></defs><title>alloy-wheel</title><g id="Layer_2" data-name="Layer 2"><g id="Layer_1-2" data-name="Layer 1"><circle id="Ellipse_25" data-name="Ellipse 25" class="cls-1" cx="50" cy="50" r="50"/><path id="Path_25" data-name="Path 25" class="cls-2" d="M50.001,21.211a28.789,28.789,0,1,0,28.788,28.79V50A28.7891,28.7891,0,0,0,50.001,21.211Zm2.393,4.272A24.6529,24.6529,0,0,1,72.567,40.106l-2.808.913-1.589.516A12.052,12.052,0,0,1,52.394,30.073ZM43.918,55.796a1.8,1.8,0,1,1-1.8,1.8h0A1.8,1.8,0,0,1,43.918,55.796Zm-2.927-6.995a1.8,1.8,0,1,1,1.8-1.8h0A1.8,1.8,0,0,1,40.991,48.801Zm4.533,1.212A4.476,4.476,0,1,1,50,54.489h0A4.476,4.476,0,0,1,45.524,50.013Zm10.6,5.782a1.8,1.8,0,1,1-1.8,1.8h0A1.8,1.8,0,0,1,56.124,55.795Zm1.127-8.791a1.8,1.8,0,1,1,.526,1.272A1.8,1.8,0,0,1,57.251,47.004Zm-7.25-8.413a1.8,1.8,0,1,1-1.8,1.8h0A1.8,1.8,0,0,1,50.001,38.591ZM47.607,25.483v4.59A12.0519,12.0519,0,0,1,31.831,41.535l-4.4-1.429A24.6531,24.6531,0,0,1,47.607,25.483ZM33.633,68.411a24.6219,24.6219,0,0,1-7.685-23.75l3,.884,1.4.552a12.05,12.05,0,0,1,6.03,18.54ZM50.001,74.64a24.5175,24.5175,0,0,1-12.5-3.408l1.727-2.371,1.024-1.408a12.05,12.05,0,0,1,19.5,0l2.749,3.783a24.517,24.517,0,0,1-12.5,3.409Zm16.368-6.228-1.747-2.4-1-1.373a12.05,12.05,0,0,1,6.025-18.545l4.4-1.431a24.6219,24.6219,0,0,1-7.685,23.748Z"/></g></g></svg>