<svg xmlns="http://www.w3.org/2000/svg" width="100" height="100" viewBox="0 0 100 100"><defs><style>.cls-1{fill:#0e3260;}.cls-2{fill:#fff;fill-rule:evenodd;}</style></defs><title>credit-card</title><g id="Layer_2" data-name="Layer 2"><g id="Layer_1-2" data-name="Layer 1"><g id="Group_55" data-name="Group 55"><circle id="Ellipse_14" data-name="Ellipse 14" class="cls-1" cx="50" cy="50" r="50"/><g id="Group_44" data-name="Group 44"><g id="Group_29" data-name="Group 29"><path id="Path_16" data-name="Path 16" class="cls-2" d="M20.349,28H76.073a6.3631,6.3631,0,0,1,6.345,6.346V66.074a6.3631,6.3631,0,0,1-6.345,6.346H20.349a6.213,6.213,0,0,1-6.2733-6.1521q-.0007-.0739,0-.1479c-.1-10.594-.073-21.182-.073-31.778A6.3631,6.3631,0,0,1,20.349,28Zm1.118,26.922H41.792V58.588H21.467Zm0,6.1661H52.45v3.666H21.467Zm42.86-17.422h8.788a2.545,2.545,0,0,1,2.539,2.538v5.235a2.545,2.545,0,0,1-2.539,2.538H64.327a2.546,2.546,0,0,1-2.538-2.538V46.204A2.5459,2.5459,0,0,1,64.327,43.666Z"/></g></g></g></g></g></svg>