<svg xmlns="http://www.w3.org/2000/svg" width="114" height="114" viewBox="0 0 114 114"><defs><style>.cls-1{fill:#bf8f6d;}.cls-2{fill:#fff;}</style></defs><title>finance-contract</title><g id="Layer_2" data-name="Layer 2"><g id="Layer_1-2" data-name="Layer 1"><g id="Group_101" data-name="Group 101"><circle id="Ellipse_37" data-name="Ellipse 37" class="cls-1" cx="57" cy="57" r="57"/><path class="cls-2" d="M66.346,51.4679a11.9185,11.9185,0,0,0-2.8-13.4118A12.4166,12.4166,0,0,0,51.2912,34.719a13.3313,13.3313,0,1,0-16.5821,18.38c-.0531-.416-.1081-.8281-.146-1.259-.0411-.484-.0351-.947-.034-1.41A10.9171,10.9171,0,1,1,49.0364,35.5885a12.0629,12.0629,0,0,0-2.7835,19.6791l.0241.0233A12.6639,12.6639,0,0,0,60.104,58.14l1.061.7181,1.995-.2752L61.304,61.026l2.281,2.2849,4.222-.287-.81,3.2081,1.961,2.0321,3.465-.1531-.641,2.678,2.486,2.493,2.7-1.151,1.45,1.162-.708,1.6.17.123,8.47.5.646-3.064ZM54.051,45.631a3.9171,3.9171,0,0,1-5.5392-.0513L48.46,45.526l.001-.001a3.8871,3.8871,0,0,1,.199-5.4935,3.844,3.844,0,0,1,1.5512-.8673,10.91,10.91,0,0,1,.1028,1.5337,10.3445,10.3445,0,0,1-.235,2.1171,1.28,1.28,0,0,0,1.113,1.076,1.1242,1.1242,0,0,0,1.28-.7,13.0374,13.0374,0,0,0,.2489-2.4919,13.4992,13.4992,0,0,0-.0841-1.4567,3.8445,3.8445,0,0,1,1.5165.9882A3.8869,3.8869,0,0,1,54.051,45.631Z"/><path class="cls-2" d="M55.353,62.141a15.9926,15.9926,0,0,1-15.9019-15.63,15.3086,15.3086,0,0,1,.4639-3.8A12.531,12.531,0,0,0,37.682,54.54a12.6628,12.6628,0,0,0,10.984,8.867l.609,1.12,1.9.67L48.414,66.525l.9771,3.07,3.8839,1.6789L51.087,73.757l.813,2.7,3.144,1.46-1.8,2.0872L54.316,83.36l2.935.215.755,1.7-1.3649,1.1.0919.1841,7.3,4.333,1.982-2.4231-8.2489-26.528A15.2641,15.2641,0,0,1,55.353,62.141Z"/></g></g></g></svg>