<svg xmlns="http://www.w3.org/2000/svg" width="114" height="114" viewBox="0 0 114 114"><defs><style>.cls-1{fill:#0e3260;}.cls-2{fill:#fff;}</style></defs><title>free-gap</title><g id="Layer_2" data-name="Layer 2"><g id="Layer_1-2" data-name="Layer 1"><circle id="Ellipse_40" data-name="Ellipse 40" class="cls-1" cx="57" cy="57" r="57"/><path class="cls-2" d="M57,9.5A47.5,47.5,0,1,0,104.5,57,47.5045,47.5045,0,0,0,57,9.5ZM16.5,57a40.3307,40.3307,0,0,1,9.4124-25.9531L42.18,47.3142a24.1694,24.1694,0,0,0,1.06,3.9767H38.01v7.6h7.13a5.5471,5.5471,0,0,1,.24,1.9,11.9583,11.9583,0,0,1-1.67,5.94c-.95,2.13-2.85,4.03-5.46,5.93l3.56,8.32c3.09-1.9,5.7-2.85,8.55-2.85a30.6361,30.6361,0,0,1,7.6,1.42,30.4128,30.4128,0,0,0,8.08,1.43,18.2889,18.2889,0,0,0,4.98-.72,10.5023,10.5023,0,0,0,3.0174-1.0894l8.9161,8.916A40.4966,40.4966,0,0,1,16.5,57ZM48.94,71.241a23.8593,23.8593,0,0,0,4.27-5.94,11.5349,11.5349,0,0,0,.95-4.99V59.2942l12.532,12.532a20.056,20.056,0,0,1-2.312.3647,24.3551,24.3551,0,0,1-5.7-.95,21.96,21.96,0,0,0-2.85-.71,6.4592,6.4592,0,0,0-2.14-.24A9.3906,9.3906,0,0,0,48.94,71.241Zm38.9764,11.91L63.19,58.4248V51.291H56.0559L51.2247,46.46a32.0846,32.0846,0,0,1-.385-3.2489,6.4882,6.4882,0,0,1,1.9-4.51,6.0591,6.0591,0,0,1,4.51-1.9,6.8581,6.8581,0,0,1,4.28,1.66c1.18.95,1.9,2.85,2.37,5.23l9.26-1.43c-.47-4.27-2.14-7.59-4.75-9.73s-6.17-3.33-10.68-3.33a18.2774,18.2774,0,0,0-8.08,1.66,15.0875,15.0875,0,0,0-5.7,5.23A13.8328,13.8328,0,0,0,42.8946,38.13L30.8488,26.084A40.4921,40.4921,0,0,1,87.9161,83.1512Z"/></g></g></svg>