<svg xmlns="http://www.w3.org/2000/svg" width="100" height="100" viewBox="0 0 100 100"><defs><style>.cls-1{fill:#0e3260;}.cls-2{fill:#fff;}</style></defs><title>handshake</title><g id="Layer_2" data-name="Layer 2"><g id="Layer_1-2" data-name="Layer 1"><g id="Group_54" data-name="Group 54"><circle id="Ellipse_13" data-name="Ellipse 13" class="cls-1" cx="50" cy="50" r="50"/><g id="Group_45" data-name="Group 45"><path id="Path_10" data-name="Path 10" class="cls-2" d="M70.872,66.459a3.5122,3.5122,0,0,1-2.489,1,3.5541,3.5541,0,0,1-1.825-.5,3.4553,3.4553,0,0,1-.913,3.152,3.5134,3.5134,0,0,1-2.4891,1,3.132,3.132,0,0,1-2.24-.83,3.5822,3.5822,0,0,1-1,3.069,3.5134,3.5134,0,0,1-2.4891,1,4.46,4.46,0,0,1-1.742-.415,2.9261,2.9261,0,0,1-.249,1.161,3.6211,3.6211,0,0,1-.83,1.244c-.0831.083-.166.166-.249.166h-.083a3.54,3.54,0,0,1-2.24.83,3.7752,3.7752,0,0,1-1.659-.415l-1.161-.83,2.738-3.4c2.489-3.069.83-5.973-1.161-7.632h0a4.844,4.844,0,0,0-3.9-1,4.5893,4.5893,0,0,0-1.659-3.65h0a4.844,4.844,0,0,0-3.9-1,4.5893,4.5893,0,0,0-1.659-3.65h0a4.844,4.844,0,0,0-3.9-1,4.5893,4.5893,0,0,0-1.659-3.65h0c-2.406-2.157-5.226-2.9-7.715-.249l-3.982,4.894-.166.166-.166-.083a3.6158,3.6158,0,0,1-.581-.5c-1.41-1.161-5.973-4.314-7.466-5.475a1.4561,1.4561,0,0,1-.5-1.908c1.327-2.9,2.738-5.724,4.065-8.545.664-1.493,1.41-2.986,2.074-4.563a1.6161,1.6161,0,0,1,.913-.913,1.5761,1.5761,0,0,1,1.161.249,50.1582,50.1582,0,0,0,5.724,3.484,12.844,12.844,0,0,0,4.231,1.327,14.29,14.29,0,0,0,2.572-.083,9.43,9.43,0,0,0,2.074-.5c.083,0,.249-.083.332-.083a4.6774,4.6774,0,0,0,1-.332c.083,0,.083,0,.166-.083.083,0,.166-.083.332-.083,1.41-.332,2.9-.664,4.314-.913l-4.4,4.4c-.166.1659-.249.332-.415.415-.166.166-.332.415-.415.5h0a5.8154,5.8154,0,0,0-1,2.323v.092a7.8324,7.8324,0,0,0,6.304,8.461,12.4736,12.4736,0,0,0,1.659.166,10.4533,10.4533,0,0,0,6.554-2.24c.913-.747,1.908-1.576,2.9-2.323l.083-.083c.249-.249.5-.415.747-.664a.081.081,0,0,0,.083-.079V47.88l.083-.0831a1.8259,1.8259,0,0,1,.664.0831,2.5546,2.5546,0,0,1,1,.415,4.5554,4.5554,0,0,1,.747.581l.5.5.332.332.083.083,1.244,1.244.83.83,1.41,1.4931,1.078,1.078.166.1659,7.881,6.8a3.5,3.5,0,0,1,.3672,4.9362Q70.928,66.4,70.872,66.459Z"/><g id="Group_22" data-name="Group 22"><path id="Path_11" data-name="Path 11" class="cls-2" d="M84.56,45.637c-1.41,1.161-6.968,5.392-8.379,6.637-.913.83-2.406,1.991-3.318,2.821a1.4569,1.4569,0,0,1-.415.332h0c-.083.083-.166.083-.249.166a.749.749,0,0,1-.415.083,1.5389,1.5389,0,0,1-.581-.166l-1.991-1.908h0l-4.646-4.314-.249-.249-.249-.249-2.157-1.991c-.581-.581-1.161-1.161-1.825-1.742-.249-.166-.415-.415-.664-.581l-.083-.083-.249-.249h-.083a5.7758,5.7758,0,0,0-1.908-.913,4.8987,4.8987,0,0,0-1.161-.166h-.166a4.794,4.794,0,0,0-2.655.83h0a5.3719,5.3719,0,0,0-.747.664.081.081,0,0,0-.083.079v.004c-.249.249-.581.415-.83.664-1,.83-1.991,1.576-2.821,2.323-.083.083-.083.083-.166.083a6.3,6.3,0,0,1-3.733,1.244,4.7306,4.7306,0,0,1-1.078-.083c-1.41-.249-2.986-2.157-2.738-3.567a1.756,1.756,0,0,1,.249-.581l.166-.1659.249-.249.332-.332L46.065,39.83l.249-.2489.249-.249,4.48-4.48h0l1.161-1.1611.166-.083a3.1507,3.1507,0,0,1,2.24-.664,14.9434,14.9434,0,0,1,4.314,1.078c1,.332,1.9909.664,2.9859.913a15.2231,15.2231,0,0,0,3.9.5h.747c2.986-.166,8.13-3.982,9.789-5.226a1.5455,1.5455,0,0,1,.913-.332,1.1,1.1,0,0,1,.664.249l.166.166a3.5,3.5,0,0,1,.415.581l2.24,4.48c1.493,2.821,2.986,5.641,4.4,8.462A1.5,1.5,0,0,1,84.56,45.637Z"/></g><g id="Group_27" data-name="Group 27"><g id="Group_23" data-name="Group 23"><path id="Path_12" data-name="Path 12" class="cls-2" d="M32.298,57.582l-3.982,4.811-.083.083a2.516,2.516,0,0,1-3.5405.354l-.0265-.022c-.083-.083-.166-.166-.249-.166a4.597,4.597,0,0,1-.5-.664c0-.083-.083-.166-.083-.249,0-.166-.083-.249-.083-.415v-.83a3.5974,3.5974,0,0,1,.083-.415l.249-.5c0-.083.083-.083.083-.166a.081.081,0,0,1,.0789-.083h.0041l3.982-4.894a2.516,2.516,0,0,1,3.54-.3539l.0265.0219h0c.083.083.166.166.249.166a.0811.0811,0,0,1,.083.079v.004c.083.083.083.083.083.166.083.083.083.166.166.249,0,.083.083.083.083.166a.3.3,0,0,1,.083.249c0,.083.083.166.083.249A2.063,2.063,0,0,1,32.298,57.582Z"/></g><g id="Group_24" data-name="Group 24"><path id="Path_13" data-name="Path 13" class="cls-2" d="M37.855,62.229l-3.733,4.48-.332.332a2.5161,2.5161,0,0,1-3.54.354l-.0265-.022h0c-.083-.083-.166-.166-.249-.166a1.4569,1.4569,0,0,1-.332-.415l-.249-.5h0c0-.083,0-.166-.083-.166,0-.083,0-.166-.083-.166v-.581h0v-.166c0-.1659.083-.249.083-.415v-.083a3.3662,3.3662,0,0,1,.415-.747l.166-.166,3.816-4.646a2.516,2.516,0,0,1,3.5405-.3539l.0265.0219h0l.166.166h0c.083.083.083.083.083.166l.166.166c.083.083.083.166.166.249s.083.249.166.415c0,.083.083.166.083.249A1.65,1.65,0,0,1,37.855,62.229Z"/></g><g id="Group_25" data-name="Group 25"><path id="Path_14" data-name="Path 14" class="cls-2" d="M43.995,65.38v.5h0c0,.083-.083.166-.083.332a.29.29,0,0,1-.083.166c-.083.083-.083.166-.166.332-.083.083-.166.166-.166.249L40.013,71.19l-.5.664a2.5159,2.5159,0,0,1-3.5405.354l-.0265-.0219h0c-.083-.0831-.166-.166-.249-.166a3.4279,3.4279,0,0,1-.581-.913c0-.083-.083-.166-.083-.249a2.5782,2.5782,0,0,1,.5-2.157l.415-.5,3.65-4.4a2.516,2.516,0,0,1,3.5405-.354l.0265.022h0c.083.083.166.166.249.166.083.083.083.1659.166.1659.083.083.083.166.166.249l.249.5h0a.29.29,0,0,0,.083.166v.166A1.0517,1.0517,0,0,0,43.995,65.38Z"/></g><g id="Group_26" data-name="Group 26"><path id="Path_15" data-name="Path 15" class="cls-2" d="M49.553,69.943h0v.5h0c0,.083-.083.166-.083.332a.29.29,0,0,1-.083.166c-.083.083-.083.166-.166.249s-.166.166-.166.249l-3.152,3.9-.83,1a2.516,2.516,0,0,1-3.5405.3539l-.0265-.0219h0c-.083-.0831-.166-.166-.249-.166a.081.081,0,0,1-.083-.079v-.004c0-.083-.083-.083-.083-.166-.083-.083-.083-.166-.166-.249,0-.083-.083-.083-.083-.166a.3.3,0,0,1-.083-.249c0-.083-.083-.166-.083-.249a2.578,2.578,0,0,1,.5-2.157l.664-.747,3.4-4.148a2.516,2.516,0,0,1,3.5405-.354l.0265.022h0c.083.083.166.166.249.166.083.083.166.166.166.249.083.083.083.083.083.1659s.083.0831.083.166v.083h0c0,.083.083.083.083.166s.083.083.083.166h0a.29.29,0,0,0,.083.166v.166A1.4583,1.4583,0,0,0,49.553,69.943Z"/></g></g></g></g></g></g></svg>