<svg xmlns="http://www.w3.org/2000/svg" width="100" height="100" viewBox="0 0 100 100"><defs><style>.cls-1{fill:#0e3260;}.cls-2{fill:#fff;}</style></defs><title>mileage</title><g id="Layer_2" data-name="Layer 2"><g id="Layer_1-2" data-name="Layer 1"><g id="Group_52" data-name="Group 52"><circle id="Ellipse_11" data-name="Ellipse 11" class="cls-1" cx="50" cy="50" r="50"/><g id="Group_46" data-name="Group 46"><path id="Path_8" data-name="Path 8" class="cls-2" d="M49,19.999A32.962,32.962,0,0,0,22.188,72.187L26.876,68.5A26.8438,26.8438,0,0,1,22.189,56H30V50H22.156a26.813,26.813,0,0,1,5.75-13.875l3.406,3.438,2.125,2.125,4.25-4.25-2.125-2.125-3.406-3.406A26.7909,26.7909,0,0,1,46,26.1559V34h6v-7.844a26.7918,26.7918,0,0,1,13.844,5.75L62.438,35.312l-2.125,2.125,4.25,4.25,2.125-2.125,3.406-3.4371A26.8142,26.8142,0,0,1,75.844,50H68v6h7.813a26.843,26.843,0,0,1-4.687,12.5l4.688,3.688A32.962,32.962,0,0,0,49,19.999ZM66.688,46.312,45.469,60.468a4.994,4.994,0,0,0,7.062,7.062Z"/></g></g></g></g></svg>