<svg xmlns="http://www.w3.org/2000/svg" width="100" height="100" viewBox="0 0 100 100"><defs><style>.cls-1{fill:#0e3260;}.cls-2{fill:#fff;}</style></defs><title>named-drivers</title><g id="Layer_2" data-name="Layer 2"><g id="Layer_1-2" data-name="Layer 1"><g id="Group_47" data-name="Group 47"><circle id="Ellipse_10" data-name="Ellipse 10" class="cls-1" cx="50" cy="50" r="50"/><path id="users" class="cls-2" d="M59.333,56.914s-18.478,0-25.4,16.169a76.415,76.415,0,0,0,25.4,4.617,76.413,76.413,0,0,0,25.4-4.618C77.813,56.914,59.333,56.914,59.333,56.914Zm0-2.3c6.929,0,11.547-6.929,11.547-18.48S59.333,24.58,59.333,24.58s-11.547,0-11.547,11.549,4.623,18.48,11.547,18.48Zm-22.412-7.89a7.637,7.637,0,0,0,5.783-2.645,33.2173,33.2173,0,0,1-.89-7.953c0-4.4379,1.706-7.162,3.809-8.8409-2.29-5.272-8.7-5.285-8.7-5.285s-9.511,0-9.511,9.511,3.804,15.2129,9.511,15.2129Zm8.967,7.453-.323-3.7529a27.037,27.037,0,0,0-8.644-1.8s-15.216,0-20.921,13.32a63.288,63.288,0,0,0,16.873,3.647C41.16,56.9139,45.89,54.1829,45.89,54.1829Z"/></g></g></g></svg>