<svg xmlns="http://www.w3.org/2000/svg" width="114" height="114" viewBox="0 0 114 114"><defs><style>.cls-1{fill:#a8a8a8;}.cls-2{fill:#fff;fill-rule:evenodd;}</style></defs><title>return-to-invoice</title><g id="Layer_2" data-name="Layer 2"><g id="Layer_1-2" data-name="Layer 1"><g id="Group_98" data-name="Group 98"><circle id="Ellipse_36" data-name="Ellipse 36" class="cls-1" cx="57" cy="57" r="57"/><g id="Group_77" data-name="Group 77"><path id="Path_40" data-name="Path 40" class="cls-2" d="M24.022,56.408l.987-2.257H19.79c0-2.821.846-4.655,3.527-5.925h4.232l7.335-16.5c2.539-3.1,4.8-4.8,6.771-4.655q15.447.2121,30.894,0c1.975-.146,4.373,1.545,6.771,4.651l7.335,16.5H90.89c2.68,1.27,3.527,3.1,3.527,5.925H89.336l.987,2.257V81.095a3.012,3.012,0,0,1-3.06,2.9629l-.04-.0009h-10.3a3.012,3.012,0,0,1-3.0991-2.9223l-.0009-.04V74.042H40.39v7.053a2.98,2.98,0,0,1-2.962,2.962H26.984a3.012,3.012,0,0,1-3.0991-2.9223l-.0009-.04C23.881,72.772,24.022,64.59,24.022,56.408ZM42.361,32.286a5.2268,5.2268,0,0,0-2.962,2.257c-1.975,4.232-4.091,8.464-6.066,12.7h47.54c-1.975-4.232-3.95-8.464-6.066-12.7a5.2273,5.2273,0,0,0-2.963-2.257Zm4.655,32.586v5.925H67.19V64.872Zm33.433-7.9A4.937,4.937,0,1,0,85.39,61.91a5,5,0,0,0-4.941-4.937Zm-46.693,0a4.937,4.937,0,1,1-4.937,4.937h0a5,5,0,0,1,4.937-4.936Z"/></g></g></g></g></svg>