<svg xmlns="http://www.w3.org/2000/svg" width="100" height="100" viewBox="0 0 100 100"><defs><style>.cls-1{fill:#0e3260;}.cls-2{fill:#fff;}</style></defs><title>scratches</title><g id="Layer_2" data-name="Layer 2"><g id="Layer_1-2" data-name="Layer 1"><g id="Group_57" data-name="Group 57"><circle id="Ellipse_25" data-name="Ellipse 25" class="cls-1" cx="50" cy="50" r="50"/><path id="Path_24" data-name="Path 24" class="cls-2" d="M82.192,50.2339a.581.581,0,0,1-.609.4161s-1.029-.1-2.824-.2881c-.9-.1-2-.236-3.253-.387a27.76,27.76,0,0,1-4.122-.859c-2.979-.751-6.521-1.506-10.133-2.772-1.785-.543-3.6121-1.143-5.449-1.7849.208.189.411.378.6.567.921.907,1.931,1.587,2.8,2.385.892.765,1.742,1.483,2.526,2.144.755.713,1.568,1.114,2.224,1.653.6711.491,1.261.9,1.7331,1.265.968.732,1.521,1.152,1.521,1.152l.094.066a.581.581,0,0,1,.1055.8148L67.4,54.613a.5669.5669,0,0,1-.68.1939s-.666-.2639-1.818-.7c-.5711-.25-1.28-.538-2.078-.888a14.858,14.858,0,0,1-2.625-1.284c-1.771-1.162-3.995-2.356-6.0871-3.981-.0939-.08-.1839-.146-.279-.231a11.63,11.63,0,0,1-.94,2.262c-.9871,1.738-1.974,3.9-3.319,6,2.46.93,4.878,1.86,7.2,2.739,3.537,1.393,6.8321,2.583,9.7,3.574,1.426.463,2.72,1.053,3.881,1.322,1.171.331,2.186.6191,3.0269.855,1.7.5,2.658.8,2.658.8l.113.033a.578.578,0,0,1,.3877.72L76.54,66.03a.5859.5859,0,0,1-.619.416s-1.025-.1-2.824-.293c-.9-.1-2-.236-3.253-.387a27.4209,27.4209,0,0,1-4.122-.859c-2.979-.751-6.521-1.506-10.133-2.7671-2.6921-.831-5.506-1.775-8.31-2.81-.8781,1.251-1.785,2.5-2.772,3.688a101.3569,101.3569,0,0,1-7.234,8.244c21.428,4.509,42.567-.213,42.567-.213.3161,0,.921,1.147.609,1.247-26.4709,8.2-44.9329.7931-44.9609.779-.472.467-.921.9-1.355,1.317-3.046,2.9-5.255,4.623-5.255,4.623a.973.973,0,0,1-1.374-1.365s1.733-2.163,4.335-5.4c1.3551-1.568,2.857-3.447,4.472-5.468,1.686-1.955,3.3571-4.132,5.109-6.238q1.1-1.3,2.1-2.64c-7.3941-2.739-14.505-5.983-19.874-8.443-5.534-2.6-9.118-4.542-9.118-4.542a.9669.9669,0,0,1-.4224-1.3006l.0064-.0124a.9881.9881,0,0,1,1.19-.463s3.8289,1.369,9.557,3.433c5.676,2.153,13.25,5.029,20.823,7.914.123.052.255.1.3819.142.1-.127.213-.2689.3211-.4.84-.982,1.45-2.04,2.186-2.965.689-.935,1.346-1.832,1.955-2.658.661-.812,1-1.662,1.478-2.337-1.431-1.143-2.885-2.337-4.24-3.641-.652-.59-1.2841-1.18-1.917-1.785-1.785-.6939-3.522-1.412-5.218-2.13-2.418.822-4.7,1.5-6.677,2.04-4.056,1.11-6.823,1.568-6.823,1.568a.977.977,0,0,1-1.1379-.7837v0a.9929.9929,0,0,1,.576-1.081s2.555-1.067,6.389-2.673c.9-.3449,1.87-.727,2.876-1.143-2.366-1.058-4.575-2.073-6.544-2.97-5.529-2.6061-9.123-4.547-9.123-4.547a.9721.9721,0,0,1-.411-1.308.9879.9879,0,0,1,1.19-.468s3.829,1.374,9.552,3.4329c2.654,1.006,5.709,2.167,8.986,3.414-.845-.9539-1.624-1.87-2.323-2.724-2.687-3.244-4.245-5.5759-4.245-5.5759a.977.977,0,0,1,.236-1.36.994.994,0,0,1,1.223.09s2.031,1.879,5.0761,4.712c1.2509,1.232,2.71,2.6,4.2779,4.047,1.067-.453,2.1391-.8921,3.225-1.332,2.573-1,4.991-2.243,7.38-3.187,1.2-.463,2.243-1.1,3.324-1.563,1.063-.491,2.068-.968,2.994-1.407.963-.4,1.672-.977,2.418-1.35.718-.411,1.35-.76,1.87-1.067,1.072-.576,1.6719-.9,1.6719-.9l.1-.052a.585.585,0,0,1,.689.93s-.5.491-1.393,1.36c-.458.42-1.02.935-1.6569,1.53a16.381,16.381,0,0,1-2.262,1.865c-1.785,1.119-3.792,2.658-6.134,3.891-2.3521,1.2-4.849,2.559-7.4561,3.6-.529.231-1.077.463-1.61.685.3781.3449.751.6939,1.124,1.0529,1.11.416,2.21.836,3.315,1.251,3.7729,1.445,7.555,2.876,11.1,4.231,3.5319,1.388,6.833,2.578,9.6889,3.57,1.4351.463,2.729,1.058,3.891,1.3271,1.171.3209,2.1911.619,3.031.85,1.69.505,2.658.8,2.658.8l.1.028A.591.591,0,0,1,82.192,50.2339Z"/></g></g></g></svg>