<svg xmlns="http://www.w3.org/2000/svg" width="100" height="100" viewBox="0 0 100 100"><defs><style>.cls-1{fill:#0e3260;}.cls-2{fill:#fff;}</style></defs><title>start-date</title><g id="Layer_2" data-name="Layer 2"><g id="Layer_1-2" data-name="Layer 1"><g id="Group_48" data-name="Group 48"><circle id="Ellipse_9" data-name="Ellipse 9" class="cls-1" cx="50" cy="50" r="50"/><path id="calendar" class="cls-2" d="M70.034,31.9661H67.219v5.629H58.775v-5.629H41.888v5.629H33.444v-5.629H30.629A5.643,5.643,0,0,0,25,37.5951v33.776A5.643,5.643,0,0,0,30.629,77h39.4a5.646,5.646,0,0,0,5.629-5.629V37.5951a5.6459,5.6459,0,0,0-5.629-5.629Zm0,39.4H30.629V48.8541h39.4ZM40.48,26.3371H34.851v9.851H40.48Zm25.331,0H60.182v9.851h5.629Z"/></g></g></g></svg>