<svg xmlns="http://www.w3.org/2000/svg" width="35.29" height="34" viewBox="0 0 35.29 34"><defs><style>.a{fill:#31af63;}</style></defs><g transform="translate(42.88 -579.66)"><path class="a" d="M-10.89,596.15c.01.17.01.34.01.51a15.012,15.012,0,0,1-15,15,15.012,15.012,0,0,1-15-15,13.559,13.559,0,0,1,.07-1.43,15.018,15.018,0,0,1,14.93-13.57,14.874,14.874,0,0,1,9.54,3.44l1.42-1.41.01-.01c-.31-.26-.62-.51-.95-.75s-.66-.46-1-.68c-.23-.14-.46-.28-.69-.41-.32-.18-.63-.34-.96-.5-.5-.24-1.01-.45-1.53-.65a16.842,16.842,0,0,0-3.25-.83,16.975,16.975,0,0,0-2.59-.2,16.975,16.975,0,0,0-2.59.2,16.842,16.842,0,0,0-3.25.83c-.52.2-1.03.41-1.53.65a17.574,17.574,0,0,0-4.14,2.81c-.34.33-.68.67-1,1.01a17.724,17.724,0,0,0-2.81,4.13c-.24.5-.45,1.01-.65,1.53a16.839,16.839,0,0,0-.83,3.25,16.975,16.975,0,0,0-.2,2.59,17.075,17.075,0,0,0,.2,2.59,16.839,16.839,0,0,0,.83,3.25c.19.52.41,1.03.65,1.53a17.2,17.2,0,0,0,3.31,4.65,16.921,16.921,0,0,0,12.01,4.98,16.921,16.921,0,0,0,12.01-4.98,17.2,17.2,0,0,0,3.31-4.65c.24-.5.46-1.01.65-1.53a16.839,16.839,0,0,0,.83-3.25,17.075,17.075,0,0,0,.2-2.59,16.7,16.7,0,0,0-.17-2.36Z"/><path class="a" d="M-7.92,587.34l-2.41-2.41a1.128,1.128,0,0,0-.8-.33,1.128,1.128,0,0,0-.8.33l-.87.87-.01.01-1.42,1.42-12.12,12.12-6.86-6.91a1.128,1.128,0,0,0-.8-.33,1.128,1.128,0,0,0-.8.33l-2.41,2.41a1.135,1.135,0,0,0,0,1.6l10.06,10.12a1.1,1.1,0,0,0,.8.34,1.1,1.1,0,0,0,.8-.34l14.09-14.08,1.59-1.59,1.96-1.96A1.135,1.135,0,0,0-7.92,587.34Z"/></g></svg>