<svg xmlns="http://www.w3.org/2000/svg" width="100" height="100" viewBox="0 0 100 100"><defs><style>.cls-1{fill:#0e3260;}.cls-2{fill:#fff;}</style></defs><title>tyre-insurance</title><g id="Layer_2" data-name="Layer 2"><g id="Layer_1-2" data-name="Layer 1"><circle id="Ellipse_24" data-name="Ellipse 24" class="cls-1" cx="50" cy="50" r="50"/><g id="Group_43" data-name="Group 43"><g id="Path_22" data-name="Path 22"><path class="cls-2" d="M61.7491,22.3179a.6073.6073,0,0,1-.28-.13l-.03-.02c-6.47-2.75-14.87-.73-14.95-.72-9.26,1.61-17.33,12.08-19.23,24.91-1.66,11.42,1.67,22.14,8.49,27.33l.09.03a.9088.9088,0,0,1,.24.11h.08l.14.15.18.07a29.5193,29.5193,0,0,0,13.91,5.12c10.53,1.35,20.85-10.43,23.04-26.25C75.3592,39.0279,70.4491,26.168,61.7491,22.3179Zm5.1,30.01-.27,1.48-.03-.05c-1.3,5.61-4.15,10.34-7.78,12.8a9.1827,9.1827,0,0,1-5.15,1.71,7.6709,7.6709,0,0,1-1.51-.15,8.7391,8.7391,0,0,1-5.55-3.93c-2.7-3.98-3.61-10.06-2.42-16.26,1.22-6.31,4.31-11.66,8.27-14.3a8.4722,8.4722,0,0,1,6.47-1.48C65.0591,33.2979,68.6391,42.358,66.8492,52.3279Z"/></g><g id="Path_23" data-name="Path 23"><path class="cls-2" d="M65.1191,52.0279c-1.09,5.84-3.83,10.74-7.32,13.1a6.8927,6.8927,0,0,1-5.24,1.27,6.2251,6.2251,0,0,1-2.15-.92c4.22-2.36,7.58-7.59,8.86-13.89,1.43-7.24-.3-14.2-4.21-17.36a6.6034,6.6034,0,0,1,3.38-.36C63.6692,34.918,66.6692,43.0579,65.1191,52.0279Z"/></g></g></g></g></svg>