<svg xmlns="http://www.w3.org/2000/svg" width="100" height="100" viewBox="0 0 100 100"><defs><style>.cls-1{fill:#0e3260;}.cls-2{fill:#fff;fill-rule:evenodd;}</style></defs><title>unlimited</title><g id="Layer_2" data-name="Layer 2"><g id="Layer_1-2" data-name="Layer 1"><g id="Group_50" data-name="Group 50"><circle id="Ellipse_7" data-name="Ellipse 7" class="cls-1" cx="50" cy="50" r="50"/><path class="cls-2" d="M83.816,36.35a18.8334,18.8334,0,0,0-26.6353,0l-7.0166,7.0166L43.1475,36.35a18.8339,18.8339,0,1,0,0,26.6357l7.0166-7.0166,7.0166,7.0166A18.8341,18.8341,0,0,0,83.816,36.35ZM37.0528,56.89a10.2151,10.2151,0,1,1-7.2236-17.4385H29.83a10.153,10.153,0,0,1,7.2232,2.9932l7.2217,7.2227Zm40.6684.001a10.2269,10.2269,0,0,1-14.4458-.001l-7.2226-7.2226,7.2226-7.2227A10.2149,10.2149,0,1,1,77.7212,56.8909Z"/></g></g></g></svg>