<svg xmlns="http://www.w3.org/2000/svg" width="114" height="114" viewBox="0 0 114 114"><defs><style>.cls-1{fill:#dcba4a;}.cls-2{fill:#fff;}</style></defs><title>vehicle-replacement</title><g id="Layer_2" data-name="Layer 2"><g id="Layer_1-2" data-name="Layer 1"><g id="Group_99" data-name="Group 99"><circle id="Ellipse_35" data-name="Ellipse 35" class="cls-1" cx="57" cy="57" r="57"/><g id="Group_92" data-name="Group 92"><path id="Path_59" data-name="Path 59" class="cls-2" d="M84.673,34.809c4.571.579,2.552.278,6.064.849a2.268,2.268,0,0,1,1.878,2.235V84.729a2.2691,2.2691,0,0,1-2.661,2.235,97.0687,97.0687,0,0,0-16.73-1.418c-2.611.024-5.229.062-7.8309.3,3.8579-1.862,8.249-2.2,12.471-2.251a6.8069,6.8069,0,0,0,6.8079-6.806v-.002Z"/><path id="Path_60" data-name="Path 60" class="cls-2" d="M27.942,34.804V76.787a6.8069,6.8069,0,0,0,6.806,6.808h.002c4.288.036,8.727.417,12.631,2.33a97.8863,97.8863,0,0,0-17.184-.029c-2.246.2-2.781.3-4.671.566q-1.433.22-2.816.494A2.2691,2.2691,0,0,1,20,84.729V37.893a2.2689,2.2689,0,0,1,1.878-2.235c2.009-.369,4.039-.594,6.064-.85Z"/><path id="Path_61" data-name="Path 61" class="cls-2" d="M77.865,28l.232.012a2.3189,2.3189,0,0,1,2.037,2.257V76.787a2.269,2.269,0,0,1-2.269,2.269c-7.278,0-12.552,1.381-16.169,3.629a12.2275,12.2275,0,0,0-2.78,2.293c-.219.259-.1.118-.34.423V32.616l.7589-.483C64.908,28.862,71.51,28.038,77.865,28Z"/><path id="Path_62" data-name="Path 62" class="cls-2" d="M34.75,28h.752c6.123.1,12.412,1.011,17.779,4.133.527.319.274.158.759.48V85.4c-.235-.305-.12-.164-.34-.423a12.23,12.23,0,0,0-2.78-2.293c-3.617-2.249-8.891-3.629-16.169-3.629a2.269,2.269,0,0,1-2.27-2.268V30.269A2.269,2.269,0,0,1,34.75,28Z"/></g></g></g></g></svg>